<svg xmlns="http://www.w3.org/2000/svg" width="1440" height="400" viewBox="0 0 1440 400"><defs><linearGradient id="bg" x2="1" y2="1"><stop stop-color="#101c2e"/><stop offset="1" stop-color="#223a4d"/></linearGradient></defs><rect width="1440" height="400" rx="28" fill="url(#bg)"/><path d="M1140 0v400M1040 0v400M940 0v400M840 0v400M0 300h1440M0 200h1440M0 100h1440" stroke="#bdd9eb" opacity=".05"/><g font-family="Arial,Helvetica,sans-serif"><text x="80" y="82" fill="#94b5cb" font-size="18" letter-spacing="4">QUANTSKILLS / PANDAAI</text><text x="76" y="216" fill="#f2f7fb" font-size="98" font-weight="700" letter-spacing="-3">QuantStudio</text><text x="82" y="278" fill="#b7ccdc" font-size="27">A local workspace for research and everyday work.</text><text x="82" y="342" fill="#80d6c9" font-size="17" letter-spacing="2">SKILLS   /   EXPERTS   /   TEAMS</text></g><g transform="translate(1120 114)" fill="none" stroke="#a4c7ed" stroke-width="3"><rect width="192" height="170" rx="24" opacity=".5"/><path d="M0 48h192M56 48v122" opacity=".4"/><circle cx="24" cy="24" r="4"/><circle cx="42" cy="24" r="4" opacity=".5"/><path d="M82 78h76M82 98h50M82 134h25l17-22 20 16 23-36"/><path d="M20 78h16M20 102h16M20 126h16" stroke="#80d6c9"/></g></svg>
